<?xml version="1.0" encoding="UTF-8" standalone="no"?>
<svg width="54px" height="54px" viewBox="0 0 54 54" version="1.1" xmlns="http://www.w3.org/2000/svg" xmlns:xlink="http://www.w3.org/1999/xlink">
    <!-- Generator: Sketch 3.6.1 (26313) - http://www.bohemiancoding.com/sketch -->
    <title>icon-up</title>
    <desc>Created with Sketch.</desc>
    <defs></defs>
    <g id="Page-1" stroke="none" stroke-width="1" fill="none" fill-rule="evenodd">
        <g id="iPhone-6-Copy-10" transform="translate(-36.000000, -408.000000)">
            <g id="icon-up" transform="translate(36.000000, 408.000000)">
                <circle id="Oval-1-Copy-2" fill="#2E3456" cx="27" cy="27" r="27"></circle>
                <g id="ic_dvr_black_24px" transform="translate(12.000000, 14.000000)">
                    <path d="M0,0 L30,0 L30,30 L0,30 L0,0 Z" id="Shape"></path>
                    <path d="M26.25,2.75 L3.75,2.75 C2.375,2.75 1.25,3.875 1.25,5.25 L1.25,20.25 C1.25,21.625 2.375,22.75 3.75,22.75 L10,22.75 L10,25.25 L20,25.25 L20,22.75 L26.25,22.75 C27.625,22.75 28.7375,21.625 28.7375,20.25 L28.75,5.25 C28.75,3.875 27.625,2.75 26.25,2.75 L26.25,2.75 Z M26.25,20.25 L3.75,20.25 L3.75,5.25 L26.25,5.25 L26.25,20.25 L26.25,20.25 Z M23.75,9 L10,9 L10,11.5 L23.75,11.5 L23.75,9 L23.75,9 Z M23.75,14 L10,14 L10,16.5 L23.75,16.5 L23.75,14 L23.75,14 Z M8.75,9 L6.25,9 L6.25,11.5 L8.75,11.5 L8.75,9 L8.75,9 Z M8.75,14 L6.25,14 L6.25,16.5 L8.75,16.5 L8.75,14 L8.75,14 Z" id="Shape" fill="#FFFFFF"></path>
                </g>
            </g>
        </g>
    </g>
</svg>