<?xml version="1.0" encoding="UTF-8" standalone="no"?>
<svg width="54px" height="54px" viewBox="0 0 54 54" version="1.1" xmlns="http://www.w3.org/2000/svg" xmlns:xlink="http://www.w3.org/1999/xlink">
    <!-- Generator: Sketch 3.6.1 (26313) - http://www.bohemiancoding.com/sketch -->
    <title>icon-integrate</title>
    <desc>Created with Sketch.</desc>
    <defs></defs>
    <g id="Page-1" stroke="none" stroke-width="1" fill="none" fill-rule="evenodd">
        <g id="iPhone-6-Copy-10" transform="translate(-36.000000, -330.000000)">
            <g id="icon-integrate" transform="translate(36.000000, 330.000000)">
                <path d="M27,54 C41.9116882,54 54,41.9116882 54,27 C54,12.0883118 41.9116882,0 27,0 C12.0883118,0 0,12.0883118 0,27 C0,41.9116882 12.0883118,54 27,54 Z" id="Oval-1-Copy" fill="#00DC00"></path>
                <path d="M14,34.1007945 C14,34.9506768 14.689619,35.6708533 15.5414286,35.6720886 L18.5834286,35.6757945 C19.9007619,35.6770298 21.163619,35.1569709 22.0934286,34.2280298 L31.9969524,24.3481474 C32.3337143,24.0109121 32.7905714,23.8219121 33.2672381,23.8219121 L33.9060952,23.8219121 C34.306,23.8219121 34.6291429,24.1455592 34.6291429,24.5445592 L34.6291429,26.0800298 C34.6291429,26.450618 35.0550476,26.660618 35.3497143,26.4357945 L40.026,22.8781474 C40.4320952,22.5693239 40.4320952,21.9590886 40.026,21.650265 L35.3497143,18.092618 C35.0550476,17.8677945 34.6291429,18.0777945 34.6291429,18.4483827 L34.6291429,19.9962062 C34.6291429,20.3939709 34.3072381,20.7163827 33.9085714,20.717618 L33.2598095,20.7200886 C31.9511429,20.7250298 30.6981905,21.2450886 29.7733333,22.1678533 L19.8834286,32.0353827 C19.5466667,32.3713827 19.0898095,32.5603827 18.6131429,32.5603827 L15.5439048,32.5603827 C14.6908571,32.5603827 14,33.2496768 14,34.1007945 Z M27.9842857,30.2145592 C27.3813333,30.8149121 27.3590476,31.8117945 27.962,32.4133827 L29.7733333,34.220618 C30.6981905,35.1433827 31.9511429,35.6634415 33.2598095,35.6683827 L33.9085714,35.6708533 C34.3072381,35.6720886 34.6291429,35.9945003 34.6291429,36.392265 L34.6291429,37.9400886 C34.6291429,38.3106768 35.0550476,38.5206768 35.3497143,38.2958533 L40.026,34.7382062 C40.4320952,34.4293827 40.4320952,33.8191474 40.026,33.5103239 L35.3497143,29.9526768 C35.0550476,29.7278533 34.6291429,29.9378533 34.6291429,30.3084415 L34.6291429,31.8439121 C34.6291429,32.2429121 34.306,32.5653239 33.9060952,32.5653239 L33.2672381,32.5653239 C32.7905714,32.5653239 32.3337143,32.3775592 31.9969524,32.0403239 L30.1658095,30.2145592 C29.5640952,29.6129709 28.5872381,29.6129709 27.9842857,30.2145592 Z M23.8465714,26.1306768 C24.4495238,25.5290886 24.4705714,24.5322062 23.8688571,23.930618 L22.0934286,22.1604415 C21.163619,21.2315003 19.9007619,20.7102062 18.5834286,20.7126768 L15.5414286,20.7163827 C14.689619,20.717618 14,21.4069121 14,22.2567945 L14,22.2876768 C14,23.1387945 14.6908571,23.8280886 15.5439048,23.8280886 L18.6131429,23.8280886 C19.0898095,23.8280886 19.5466667,24.0170886 19.8834286,24.3530886 L21.6650476,26.1306768 C22.2667619,26.7310298 23.243619,26.7310298 23.8465714,26.1306768 Z" id="shuffle" fill="#FFFFFF"></path>
            </g>
        </g>
    </g>
</svg>