<?xml version="1.0" encoding="UTF-8" standalone="no"?>
<svg width="54px" height="54px" viewBox="0 0 54 54" version="1.1" xmlns="http://www.w3.org/2000/svg" xmlns:xlink="http://www.w3.org/1999/xlink">
    <!-- Generator: Sketch 3.6.1 (26313) - http://www.bohemiancoding.com/sketch -->
    <title>icon-report</title>
    <desc>Created with Sketch.</desc>
    <defs></defs>
    <g id="Page-1" stroke="none" stroke-width="1" fill="none" fill-rule="evenodd">
        <g id="iPhone-6-Copy-10" transform="translate(-36.000000, -408.000000)">
            <g id="icon-report" transform="translate(36.000000, 408.000000)">
                <circle id="Oval-1-Copy-2" fill="#00DC00" cx="27" cy="27" r="27"></circle>
                <path d="M13,14.855127 L13,40.144873 C13,41.1698696 13.8301304,42 14.855127,42 L40.144873,42 C41.1698696,42 42,41.1698696 42,40.144873 L42,14.855127 C42,13.8301304 41.1698696,13 40.144873,13 L14.855127,13 C13.8301304,13 13,13.8301304 13,14.855127 L13,14.855127 Z M38.6015321,39.5264973 L16.4075617,39.5264973 C15.9035076,39.5264973 15.4942884,39.1172781 15.4942884,38.6119249 L15.4942884,16.4192537 C15.4942884,15.9151996 15.9035076,15.5059804 16.4075617,15.5059804 L38.6015321,15.5059804 C39.1055862,15.5059804 39.5148054,15.9151996 39.5148054,16.4192537 L39.5148054,38.6119249 C39.5148054,39.1172781 39.1055862,39.5264973 38.6015321,39.5264973 Z M34.6288581,22.6173005 L20.2243426,22.6173005 C19.1915513,22.6173005 18.3536263,21.7793755 18.3536263,20.7465842 L18.3536263,19.8034314 C18.3536263,18.769341 19.1915513,17.931416 20.2243426,17.931416 L34.6288581,17.931416 C35.6629485,17.931416 36.5008735,18.769341 36.5008735,19.8034314 L36.5008735,20.7465842 C36.5008735,21.7793755 35.6629485,22.6173005 34.6288581,22.6173005 Z M34.6288581,36.4320208 L27.195359,36.4320208 C26.1612686,36.4320208 25.3233436,35.5940958 25.3233436,34.5613045 L25.3233436,26.6263495 C25.3233436,25.5935582 26.1612686,24.7556332 27.195359,24.7556332 L34.6288581,24.7556332 C35.6629485,24.7556332 36.5008735,25.5935582 36.5008735,26.6263495 L36.5008735,34.5613045 C36.5008735,35.5940958 35.6629485,36.4320208 34.6288581,36.4320208 Z M20.2243426,24.7556332 L21.3506697,24.7556332 C22.3847601,24.7556332 23.2226851,25.5935582 23.2226851,26.6263495 L23.2226851,34.5613045 C23.2226851,35.5940958 22.3847601,36.4320208 21.3506697,36.4320208 L20.2243426,36.4320208 C19.1915513,36.4320208 18.3536263,35.5940958 18.3536263,34.5613045 L18.3536263,26.6263495 C18.3536263,25.5935582 19.1915513,24.7556332 20.2243426,24.7556332 Z" id="layout" fill="#FFFFFF"></path>
            </g>
        </g>
    </g>
</svg>