<?xml version="1.0" encoding="UTF-8" standalone="no"?>
<svg width="54px" height="54px" viewBox="0 0 54 54" version="1.1" xmlns="http://www.w3.org/2000/svg" xmlns:xlink="http://www.w3.org/1999/xlink">
    <!-- Generator: Sketch 3.6.1 (26313) - http://www.bohemiancoding.com/sketch -->
    <title>icon-mobile</title>
    <desc>Created with Sketch.</desc>
    <defs></defs>
    <g id="Page-1" stroke="none" stroke-width="1" fill="none" fill-rule="evenodd">
        <g id="iPhone-6-Copy-10" transform="translate(-36.000000, -253.000000)">
            <g id="icon-mobile" transform="translate(36.000000, 253.000000)">
                <circle id="Oval-1" fill="#2E3456" cx="27" cy="27" r="27"></circle>
                <g id="ic_phonelink_ring_black_24px" transform="translate(14.000000, 13.000000)">
                    <path d="M0.891092746,0 L32,0 L32,29.15 L0.891092746,29.15 L0.891092746,0 L0.891092746,0 Z" id="Shape"></path>
                    <path d="M26.9448026,9.35229167 L25.6485981,10.566875 C27.9817661,12.753125 27.9817661,16.1539583 25.6485981,18.4616667 L26.9448026,19.67625 C30.1853137,16.8827083 30.1853137,12.2672917 26.9448026,9.35229167 L26.9448026,9.35229167 Z M24.2227732,11.9029167 L22.9265687,13.1175 C23.574671,13.9677083 23.574671,15.0608333 22.9265687,15.9110417 L24.2227732,17.125625 C25.7782185,15.668125 25.7782185,13.481875 24.2227732,11.9029167 L24.2227732,11.9029167 Z M19.0379553,1.21458333 L6.07591062,1.21458333 C4.65008571,1.21458333 3.48350168,2.30770833 3.48350168,3.64375 L3.48350168,25.50625 C3.48350168,26.8422917 4.65008571,27.9354167 6.07591062,27.9354167 L19.0379553,27.9354167 C20.4637802,27.9354167 21.6303642,26.8422917 21.6303642,25.50625 L21.6303642,3.64375 C21.6303642,2.30770833 20.4637802,1.21458333 19.0379553,1.21458333 L19.0379553,1.21458333 Z M19.0379553,24.2916667 L6.07591062,24.2916667 L6.07591062,4.85833333 L19.0379553,4.85833333 L19.0379553,24.2916667 L19.0379553,24.2916667 Z" id="Shape" fill="#FFFFFF"></path>
                </g>
            </g>
        </g>
    </g>
</svg>