<svg id="Layer_1" data-name="Layer 1" xmlns="http://www.w3.org/2000/svg" viewBox="0 0 375 142.27"><defs><style>.cls-1{fill:none;}.cls-2{fill:#00dc00;}</style></defs><title>Untitled-2</title><rect class="cls-1" width="375" height="142.27"/><path class="cls-2" d="M260.78,138c-1.57-1-3.91-1.23-2.71-2.85,0,0,.05-0.1.08-0.14,1-.89,2.21-1.88,3.51-3,2.55-2.12,7.66-5.5,8.59-4.88,5.23,3.51,23.94-.88,40.79-14.61,7.88-6.42,18-14.22,17.3-21.16-0.26-2.5-7.38,1.76-10.53,2.16a51.45,51.45,0,0,1-7.9.39c-9.07-.24-18.59,1.35-30.5,11.62,2.23-6.25,2.64-6.7,7.41-8.6C299.56,91.91,312,82.76,324,70c20.31-21.52,43.39-56.63,34.33-67.12-3.45-4-7.07,1.72-10.22,4.7a194.35,194.35,0,0,1-17.53,14.61c-8.81,6.57-17.66,12.66-26.16,20.9-13.24,12.84-23.4,26.73-27.74,42.51-0.78,2.85-1.13,5.54-1.74,8.62a10.42,10.42,0,0,0,.86-0.86c0.56-1,1.11-2.08,1.67-3.12,5-9.25,10.53-18.43,18.14-26.33,5.79-6,11.94-11.5,18-16.92,8-7.09,16.07-13.81,24.06-20.85,2.42-2.13,4.68-4.81,7.36-7.6A9.55,9.55,0,0,1,344.5,20c-0.7,1-1.43,2-2.17,3-8.33,11-18.08,19.5-27.64,28.35-6.54,6-13.2,11.82-19,19.24-11.83,15.17-19.84,30.78-26.33,46.6a5.08,5.08,0,0,0-.17,1.29c9.75-9.25,18.68-13.64,27.28-14.84,6.08-.85,12.33-2.09,19.06-3.25-3,1.44-5.76,3.05-8.22,3.82-5.72,1.79-11.3,3.1-17,4.74-8.32,2.4-23.86,15.27-34.63,25.18a0.42,0.42,0,0,0-.15.09,16.52,16.52,0,0,1-7,3.75H0v4H375v-4H260.78Z" transform="translate(0 0.27)"/></svg>